<svg width="52" height="52" viewBox="0 0 52 52" fill="none" xmlns="http://www.w3.org/2000/svg">
<path d="M31.3085 34.8184C34.6668 29.4884 39.0002 21.6667 39.0002 17.3334C39.0002 13.8856 37.6305 10.579 35.1925 8.14098C32.7546 5.70301 29.448 4.33337 26.0002 4.33337C22.5523 4.33337 19.2457 5.70301 16.8078 8.14098C14.3698 10.579 13.0002 13.8856 13.0002 17.3334C13.0002 21.6667 17.3335 29.4884 20.6918 34.8184C13.8668 35.23 4.3335 36.595 4.3335 41.1667C4.3335 47.19 20.9085 47.6667 26.0002 47.6667C31.0918 47.6667 47.6668 47.19 47.6668 41.1667C47.6668 36.595 38.1335 35.23 31.3085 34.8184ZM17.3335 17.3334C17.3335 15.0348 18.2466 12.8304 19.8719 11.2051C21.4972 9.5798 23.7016 8.66671 26.0002 8.66671C28.2987 8.66671 30.5031 9.5798 32.1284 11.2051C33.7537 12.8304 34.6668 15.0348 34.6668 17.3334C34.6668 20.5834 30.1168 28.6867 26.2818 34.6667H25.7185C21.8835 28.6867 17.3335 20.5834 17.3335 17.3334ZM26.0002 43.3334C20.4134 43.5612 14.829 42.8283 9.49016 41.1667C13.9902 39.712 18.6926 38.9807 23.4218 39L24.2235 40.1917C24.4232 40.4778 24.689 40.7114 24.9983 40.8727C25.3076 41.034 25.6513 41.1182 26.0002 41.1182C26.349 41.1182 26.6927 41.034 27.002 40.8727C27.3114 40.7114 27.5772 40.4778 27.7768 40.1917L28.5785 39C33.3078 38.9807 38.0101 39.712 42.5102 41.1667C37.1713 42.8283 31.5869 43.5612 26.0002 43.3334Z" fill="#E4E4E4"/>
<path d="M31.7853 17.3333C31.7853 16.1892 31.4461 15.0707 30.8104 14.1194C30.1747 13.168 29.2712 12.4266 28.2142 11.9887C27.1571 11.5508 25.9939 11.4363 24.8717 11.6595C23.7496 11.8827 22.7188 12.4337 21.9097 13.2427C21.1007 14.0518 20.5497 15.0826 20.3265 16.2047C20.1033 17.3269 20.2178 18.4901 20.6557 19.5472C21.0935 20.6042 21.835 21.5077 22.7864 22.1434C23.7377 22.7791 24.8562 23.1183 26.0003 23.1183C27.5329 23.1126 29.001 22.5013 30.0846 21.4176C31.1683 20.334 31.7796 18.8659 31.7853 17.3333ZM24.5487 17.3333C24.5487 17.0462 24.6338 16.7656 24.7933 16.5268C24.9528 16.2881 25.1796 16.102 25.4448 15.9922C25.7101 15.8823 26.0019 15.8536 26.2835 15.9096C26.5651 15.9656 26.8238 16.1038 27.0268 16.3069C27.2298 16.5099 27.3681 16.7685 27.4241 17.0501C27.4801 17.3317 27.4514 17.6236 27.3415 17.8889C27.2316 18.1541 27.0456 18.3808 26.8068 18.5404C26.5681 18.6999 26.2875 18.785 26.0003 18.785C25.6153 18.785 25.2461 18.6321 24.9739 18.3598C24.7016 18.0876 24.5487 17.7183 24.5487 17.3333Z" fill="#E4E4E4"/>
</svg>
