<svg width="52" height="52" viewBox="0 0 52 52" fill="none" xmlns="http://www.w3.org/2000/svg">
<path d="M26.0002 46.445C25.7169 46.445 25.4318 46.3768 25.17 46.2423C22.2432 44.7157 18.9909 43.9185 15.6899 43.9185C12.3888 43.9185 9.13657 44.7157 6.20974 46.2423C5.93622 46.3841 5.63086 46.4531 5.32298 46.4428C5.0151 46.4325 4.71505 46.3432 4.45163 46.1835C4.18821 46.0238 3.97027 45.799 3.81876 45.5308C3.66725 45.2626 3.58724 44.9599 3.58643 44.6519V10.5829C3.58641 10.2937 3.65636 10.0087 3.79031 9.75238C3.92426 9.49604 4.11822 9.2759 4.35567 9.11075C11.1354 4.3931 20.2444 4.3931 27.0259 9.11075C27.5064 9.44606 27.7933 9.99654 27.7933 10.5829V44.6519C27.7933 45.1274 27.6044 45.5835 27.2681 45.9198C26.9319 46.256 26.4758 46.445 26.0002 46.445ZM15.6899 40.3323C18.5768 40.3323 21.4655 40.8505 24.2071 41.8869V11.5512C21.642 9.98565 18.695 9.15741 15.6899 9.15741C12.6848 9.15741 9.73777 9.98565 7.17263 11.5512V41.8869C9.89454 40.8586 12.7802 40.3319 15.6899 40.3323Z" fill="#E4E4E4"/>
<path d="M46.6208 46.445C46.3375 46.445 46.0524 46.3768 45.7906 46.2423C42.8638 44.7157 39.6115 43.9185 36.3105 43.9185C33.0094 43.9185 29.7572 44.7157 26.8303 46.2423C26.5568 46.3841 26.2515 46.4531 25.9436 46.4428C25.6357 46.4325 25.3357 46.3432 25.0722 46.1835C24.8088 46.0238 24.5909 45.799 24.4394 45.5308C24.2879 45.2626 24.2078 44.9599 24.207 44.6519V10.5829C24.207 10.2937 24.277 10.0087 24.4109 9.75238C24.5449 9.49604 24.7388 9.2759 24.9763 9.11075C31.756 4.3931 40.865 4.3931 47.6465 9.11075C48.127 9.44606 48.4139 9.99654 48.4139 10.5829V44.6519C48.4139 45.1274 48.225 45.5835 47.8887 45.9198C47.5525 46.256 47.0964 46.445 46.6208 46.445ZM36.3105 40.3323C39.1974 40.3323 42.0861 40.8505 44.8277 41.8869V11.5512C42.2626 9.98565 39.3156 9.15741 36.3105 9.15741C33.3054 9.15741 30.3584 9.98565 27.7932 11.5512V41.8869C30.5151 40.8586 33.4008 40.3319 36.3105 40.3323Z" fill="#E4E4E4"/>
</svg>
