<svg width="52" height="52" viewBox="0 0 52 52" fill="none" xmlns="http://www.w3.org/2000/svg">
<path d="M30.1905 34.4244H28.8405V23.6465C28.8406 23.411 28.7943 23.1778 28.7043 22.9602C28.6142 22.7426 28.4821 22.5448 28.3156 22.3783C28.1491 22.2118 27.9514 22.0797 27.7337 21.9896C27.5161 21.8996 27.2829 21.8533 27.0474 21.8534H21.8099C21.3343 21.8534 20.8783 22.0423 20.542 22.3786C20.2057 22.7149 20.0168 23.171 20.0168 23.6465C20.0168 24.1221 20.2057 24.5782 20.542 24.9144C20.8783 25.2507 21.3343 25.4396 21.8099 25.4396H25.2543V34.4244H21.8099C21.3343 34.4244 20.8783 34.6133 20.542 34.9496C20.2057 35.2859 20.0168 35.7419 20.0168 36.2175C20.0168 36.6931 20.2057 37.1492 20.542 37.4854C20.8783 37.8217 21.3343 38.0106 21.8099 38.0106H30.1905C30.6661 38.0106 31.1222 37.8217 31.4585 37.4854C31.7947 37.1492 31.9836 36.6931 31.9836 36.2175C31.9836 35.7419 31.7947 35.2859 31.4585 34.9496C31.1222 34.6133 30.6661 34.4244 30.1905 34.4244ZM26.0002 17.9541C26.5322 17.9541 27.0522 17.7964 27.4945 17.5008C27.9368 17.2053 28.2816 16.7852 28.4851 16.2937C28.6887 15.8023 28.742 15.2615 28.6382 14.7397C28.5344 14.218 28.2782 13.7387 27.9021 13.3626C27.5259 12.9864 27.0467 12.7303 26.5249 12.6265C26.0032 12.5227 25.4624 12.576 24.9709 12.7795C24.4795 12.9831 24.0594 13.3278 23.7639 13.7702C23.4683 14.2125 23.3106 14.7325 23.3106 15.2645C23.3106 15.9778 23.5939 16.6619 24.0983 17.1663C24.6028 17.6707 25.2869 17.9541 26.0002 17.9541ZM26.0002 3.58618C20.0578 3.59286 14.3606 5.95646 10.1587 10.1584C5.9567 14.3604 3.59311 20.0575 3.58643 26C3.59653 31.9414 5.96122 37.6365 10.1624 41.8378C14.3636 46.039 20.0588 48.4037 26.0002 48.4138C31.9447 48.4138 37.6458 46.0523 41.8492 41.8489C46.0526 37.6455 48.414 31.9445 48.414 26C48.414 20.0555 46.0526 14.3544 41.8492 10.151C37.6458 5.94763 31.9447 3.58618 26.0002 3.58618ZM39.1438 39.4588C36.0336 42.4892 31.9707 44.3503 27.6445 44.7263C23.3183 45.1024 18.9953 43.9701 15.4088 41.5218C11.8224 39.0734 9.19336 35.4597 7.96786 31.2937C6.74237 27.1277 6.99586 22.6661 8.68532 18.6657C10.3748 14.6653 13.3962 11.3726 17.2369 9.34623C21.0775 7.31984 25.501 6.68455 29.7568 7.54815C34.0125 8.41176 37.8384 10.7211 40.5854 14.0843C43.3324 17.4475 44.8313 21.6575 44.8278 26C44.834 28.5103 44.3337 30.996 43.3571 33.3085C42.3805 35.621 40.9475 37.7128 39.1438 39.4588Z" fill="#E4E4E4"/>
</svg>
